solid OpenSCAD_Model
  facet normal -0 0 1
    outer loop
      vertex 0 46 70
      vertex 134 0 70
      vertex 134 46 70
    endloop
  endfacet
  facet normal 0 0 1
    outer loop
      vertex 134 0 70
      vertex 0 46 70
      vertex 0 0 70
    endloop
  endfacet
  facet normal 0 0 -1
    outer loop
      vertex 0 0 0
      vertex 134 46 0
      vertex 134 0 0
    endloop
  endfacet
  facet normal -0 0 -1
    outer loop
      vertex 134 46 0
      vertex 0 0 0
      vertex 0 46 0
    endloop
  endfacet
  facet normal 0 -1 0
    outer loop
      vertex 0 0 0
      vertex 134 0 70
      vertex 0 0 70
    endloop
  endfacet
  facet normal 0 -1 -0
    outer loop
      vertex 134 0 70
      vertex 0 0 0
      vertex 134 0 0
    endloop
  endfacet
  facet normal 1 -0 0
    outer loop
      vertex 134 0 70
      vertex 134 46 0
      vertex 134 46 70
    endloop
  endfacet
  facet normal 1 0 0
    outer loop
      vertex 134 46 0
      vertex 134 0 70
      vertex 134 0 0
    endloop
  endfacet
  facet normal 0 1 -0
    outer loop
      vertex 134 46 0
      vertex 0 46 70
      vertex 134 46 70
    endloop
  endfacet
  facet normal 0 1 0
    outer loop
      vertex 0 46 70
      vertex 134 46 0
      vertex 0 46 0
    endloop
  endfacet
  facet normal -1 0 0
    outer loop
      vertex 0 0 0
      vertex 0 46 70
      vertex 0 46 0
    endloop
  endfacet
  facet normal -1 -0 0
    outer loop
      vertex 0 46 70
      vertex 0 0 0
      vertex 0 0 70
    endloop
  endfacet
endsolid OpenSCAD_Model
